<mxfile host="app.diagrams.net" modified="2022-01-05T03:00:39.577Z" agent="5.0 (Windows NT 10.0; Win64; x64) AppleWebKit/537.36 (KHTML, like Gecko) Chrome/96.0.4664.110 Safari/537.36" etag="2I4VTot9jmcxMuk2KAih" version="16.0.0" type="github" pages="2">
  <diagram id="Q02ze7TgW7J9-6o44FqJ" name="首页">
    <mxGraphModel dx="1422" dy="882" grid="1" gridSize="10" guides="1" tooltips="1" connect="1" arrows="1" fold="1" page="1" pageScale="1" pageWidth="827" pageHeight="1169" math="0" shadow="0">
      <root>
        <mxCell id="0" />
        <mxCell id="1" parent="0" />
        <mxCell id="Z430g1xrPCrQw9_3YiJl-5" style="edgeStyle=orthogonalEdgeStyle;rounded=0;orthogonalLoop=1;jettySize=auto;html=1;exitX=0.55;exitY=0.95;exitDx=0;exitDy=0;exitPerimeter=0;entryX=0.5;entryY=0;entryDx=0;entryDy=0;" edge="1" parent="1" source="Z430g1xrPCrQw9_3YiJl-1" target="Z430g1xrPCrQw9_3YiJl-2">
          <mxGeometry relative="1" as="geometry" />
        </mxCell>
        <mxCell id="Z430g1xrPCrQw9_3YiJl-7" value="当有广播时，主动调用广播系统的接口" style="edgeLabel;html=1;align=center;verticalAlign=middle;resizable=0;points=[];" vertex="1" connectable="0" parent="Z430g1xrPCrQw9_3YiJl-5">
          <mxGeometry x="-0.2405" relative="1" as="geometry">
            <mxPoint as="offset" />
          </mxGeometry>
        </mxCell>
        <mxCell id="Z430g1xrPCrQw9_3YiJl-1" value="应急系统（旧）" style="ellipse;shape=cloud;whiteSpace=wrap;html=1;" vertex="1" parent="1">
          <mxGeometry x="240" y="50" width="120" height="80" as="geometry" />
        </mxCell>
        <UserObject label="广播系统（新）" link="data:page/id,ofqf1coYk1EAfXtIm1WT" id="Z430g1xrPCrQw9_3YiJl-2">
          <mxCell style="whiteSpace=wrap;html=1;aspect=fixed;" vertex="1" parent="1">
            <mxGeometry x="266" y="242" width="80" height="80" as="geometry" />
          </mxCell>
        </UserObject>
        <mxCell id="Z430g1xrPCrQw9_3YiJl-9" style="edgeStyle=orthogonalEdgeStyle;rounded=0;orthogonalLoop=1;jettySize=auto;html=1;exitX=0.5;exitY=0;exitDx=0;exitDy=0;exitPerimeter=0;entryX=0.5;entryY=1;entryDx=0;entryDy=0;" edge="1" parent="1" source="Z430g1xrPCrQw9_3YiJl-4" target="Z430g1xrPCrQw9_3YiJl-2">
          <mxGeometry relative="1" as="geometry" />
        </mxCell>
        <mxCell id="Z430g1xrPCrQw9_3YiJl-10" value="激活、心跳、监听广播、同步广播处理结果" style="edgeLabel;html=1;align=center;verticalAlign=middle;resizable=0;points=[];" vertex="1" connectable="0" parent="Z430g1xrPCrQw9_3YiJl-9">
          <mxGeometry x="0.2729" y="-1" relative="1" as="geometry">
            <mxPoint as="offset" />
          </mxGeometry>
        </mxCell>
        <mxCell id="Z430g1xrPCrQw9_3YiJl-4" value="一体机" style="shape=cylinder3;whiteSpace=wrap;html=1;boundedLbl=1;backgroundOutline=1;size=15;" vertex="1" parent="1">
          <mxGeometry x="276" y="401" width="60" height="80" as="geometry" />
        </mxCell>
      </root>
    </mxGraphModel>
  </diagram>
  <diagram id="ofqf1coYk1EAfXtIm1WT" name="广播系统功能一览">
    <mxGraphModel dx="1422" dy="882" grid="1" gridSize="10" guides="1" tooltips="1" connect="1" arrows="1" fold="1" page="1" pageScale="1" pageWidth="827" pageHeight="1169" math="0" shadow="0">
      <root>
        <mxCell id="cJtPXtddHENTnZ-PwpBm-0" />
        <mxCell id="cJtPXtddHENTnZ-PwpBm-1" parent="cJtPXtddHENTnZ-PwpBm-0" />
        <mxCell id="cJtPXtddHENTnZ-PwpBm-2" value="+设备管理&lt;br&gt;-激活码管理&lt;br&gt;-设备一览&lt;br&gt;-设备在线履历&lt;br&gt;-设备广播&lt;br&gt;+广播管理&lt;br&gt;-新增广播&lt;br&gt;+应急广播（单独的模块）&lt;br&gt;-查看在哪天收到了应急广播，处理的结果如何（针对所有设备的广播）&lt;br&gt;+统计管理&lt;br&gt;-统计管理&lt;br&gt;（每个区县包含设备的数量/在线的数量）&lt;br&gt;（每个乡镇包含设备的数量/在线的数量）&lt;br&gt;每个区县处理的应急广播的数量&lt;br&gt;每个乡镇处理的应急播放的数量&lt;br&gt;&lt;br&gt;" style="whiteSpace=wrap;html=1;aspect=fixed;align=left;verticalAlign=top;" vertex="1" parent="cJtPXtddHENTnZ-PwpBm-1">
          <mxGeometry x="10" y="20" width="610" height="610" as="geometry" />
        </mxCell>
      </root>
    </mxGraphModel>
  </diagram>
</mxfile>
